<?xml version="1.0" encoding="UTF-8"?><svg id="Layer_2" xmlns="http://www.w3.org/2000/svg" viewBox="0 0 2360 587"><defs><style>.cls-1{fill:none;}.cls-2{fill:#fff;}</style></defs><g id="vv-white-RGB"><g><rect id="safeArea" class="cls-1" width="2360" height="587"/><g id="logo"><path class="cls-2" d="M860.83,383.07h-102.67V208.12c0-2.87-1-5.22-3.06-7.19-2.1-2.02-4.43-3-7.13-3s-4.85,1-6.82,3.06c-2.02,2.1-3,4.44-3,7.13v179.23c0,4.4,1.44,7.97,4.41,10.94,2.97,2.97,6.54,4.42,10.94,4.42h107.33c2.91,0,5.14-.91,7-2.87,1.89-1.98,2.82-4.26,2.82-6.95,0-2.9-.9-5.21-2.75-7.06-1.85-1.86-4.17-2.76-7.07-2.76Z"/><path class="cls-2" d="M1602.65,197.93c-2.62,0-4.85,1-6.82,3.06-2.02,2.1-3,4.44-3,7.13v186.24c0,2.66,.96,4.91,2.93,6.88,4.15,4.16,10.35,3.8,14.14,0,1.97-1.96,2.94-4.22,2.94-6.88V208.12c0-2.87-1-5.22-3.06-7.19-2.1-2.02-4.43-3-7.13-3Z"/><path class="cls-2" d="M1888.41,199.41h-150.47c-2.66,0-4.71,.85-6.44,2.67-1.77,1.86-2.64,3.96-2.64,6.41,0,2.62,.88,4.73,2.68,6.44,1.89,1.79,3.92,2.63,6.4,2.63h65.42v176.8c0,2.66,.96,4.91,2.94,6.88,4.1,4.12,10.32,3.79,13.89,.07,1.89-1.98,2.81-4.26,2.81-6.95V217.56h65.42c2.66,0,4.71-.85,6.45-2.68,1.77-1.86,2.63-3.96,2.63-6.39s-.86-4.54-2.63-6.41c-1.74-1.82-3.8-2.67-6.45-2.67Z"/><path class="cls-2" d="M1463.38,197.23c-5.21-2.2-11.18,.23-13.38,5.42l-70.21,165.79-70.21-165.79c-2.2-5.19-8.18-7.62-13.38-5.42-5.19,2.2-7.62,8.19-5.42,13.38l79.61,187.98c1.6,3.77,5.3,6.23,9.4,6.23s7.8-2.45,9.4-6.23l79.61-187.98c2.2-5.19-.23-11.18-5.42-13.38Z"/><path class="cls-2" d="M1112.96,214.73v-14.14h21.5c2.75,0,4.98-2.23,4.98-4.98v-11.05c0-2.75-2.23-4.98-4.98-4.98h-37.54c-2.75,0-4.98,2.23-4.98,4.98v39.19c0,2.71,1.87,5.1,4.56,5.82,40.49,10.77,65.73,50.24,58.71,91.82-5.55,32.92-31.29,59.12-64.05,65.19-23.98,4.46-48.33-1.81-66.81-17.18-18.51-15.4-29.14-37.99-29.14-61.97,0-36.43,24.6-68.43,59.83-77.83,2.68-.72,4.55-3.1,4.55-5.81l.02-39.22c0-2.75-2.23-4.98-4.98-4.98h-37.54c-2.75,0-4.98,2.23-4.98,4.98v11.05c0,2.75,2.23,4.98,4.98,4.98h21.5v14.16c-38.04,15.29-62.66,51.43-62.8,92.33-.18,53.14,42.84,98.11,95.89,100.25,1.38,.06,2.77,.08,4.15,.08,25.93,0,50.37-9.82,69.19-27.9,19.84-19.06,30.77-44.66,30.77-72.09,0-41.08-24.64-77.36-62.85-92.69Z"/><path class="cls-2" d="M601.27,217.56c2.41,0,4.48-.9,6.33-2.75,1.85-1.84,2.75-3.92,2.75-6.32s-.87-4.46-2.75-6.33c-1.85-1.85-3.92-2.75-6.33-2.75h-121.34c-2.62,0-4.85,1-6.82,3.06-2.02,2.1-3,4.44-3,7.13v183.29c0,2.66,.96,4.91,2.93,6.88,1.97,1.98,4.22,2.94,6.88,2.94h121.34c2.45,0,4.54-.86,6.39-2.63,1.83-1.74,2.69-3.67,2.69-6.08,0-2.69-.87-4.81-2.75-6.69-1.85-1.86-3.93-2.76-6.33-2.76h-111.15v-74.4h100.09c2.65,0,4.7-.86,6.45-2.69,1.79-1.88,2.63-3.92,2.63-6.39,0-2.65-.85-4.71-2.69-6.45-1.86-1.77-3.96-2.63-6.39-2.63h-100.09v-74.41h111.15Z"/><path class="cls-2" d="M2095.79,202.65c-1.59-3.77-5.3-6.23-9.4-6.23s-7.81,2.45-9.4,6.23l-79.61,187.98c-2.19,5.19,.23,11.18,5.42,13.38,5.14,2.17,11.18-.22,13.38-5.42l70.21-165.79,70.22,165.79c1.64,3.89,5.43,6.23,9.4,6.23,1.34,0,2.68-.26,3.98-.81,5.19-2.2,7.62-8.19,5.42-13.38l-79.62-187.98Z"/><path class="cls-2" d="M353.42,197.23c-5.21-2.2-11.18,.23-13.38,5.42l-70.21,165.79-70.21-165.79c-2.2-5.19-8.18-7.62-13.38-5.42-5.19,2.2-7.62,8.19-5.42,13.38l79.61,187.98c1.6,3.77,5.3,6.23,9.4,6.23s7.8-2.45,9.4-6.23l79.61-187.98c2.2-5.19-.23-11.18-5.42-13.38Z"/><path class="cls-2" d="M2166.26,201.41h-5.3c-.54,0-.95,.17-1.24,.5-.28,.33-.43,.75-.43,1.25v13.1c0,.4,.13,.7,.38,.92,.26,.21,.56,.32,.92,.32s.67-.11,.94-.33c.27-.22,.4-.52,.4-.9v-5.96h2.94l4.17,6.62c.23,.37,.55,.55,.98,.55,.34,0,.65-.12,.94-.36s.43-.53,.43-.85c0-.2-.06-.4-.19-.6l-3.73-5.41c.74-.09,1.38-.22,1.93-.39,.55-.18,1.05-.43,1.5-.76,.45-.33,.8-.76,1.03-1.3,.23-.54,.35-1.19,.35-1.94,0-1.53-.46-2.66-1.38-3.37-.92-.72-2.47-1.08-4.64-1.08Zm3.05,5.42c-.13,.3-.3,.54-.5,.7-.2,.16-.47,.29-.81,.38-.34,.09-.66,.15-.96,.17-.3,.02-.68,.03-1.13,.03h-.49c-.23,0-.46,0-.69,0-.24,0-.51-.01-.81-.01h-.8c-.58,0-.98,0-1.19,.02v-4.52h3.98c1.13,0,2.02,.15,2.65,.46,.63,.3,.95,.86,.95,1.67,0,.43-.07,.79-.2,1.1Z"/><path class="cls-2" d="M2177.96,202.25c-1.35-2.23-3.2-4.01-5.53-5.31-2.33-1.31-4.86-1.96-7.58-1.96s-5.28,.65-7.6,1.96c-2.33,1.31-4.17,3.08-5.54,5.31-1.36,2.24-2.04,4.66-2.04,7.27,0,1.94,.4,3.81,1.2,5.58,.8,1.77,1.89,3.31,3.25,4.61,1.36,1.3,2.98,2.33,4.86,3.1,1.87,.77,3.83,1.15,5.88,1.15s4-.38,5.87-1.15c1.87-.77,3.48-1.8,4.84-3.1,1.35-1.3,2.43-2.84,3.24-4.61,.8-1.77,1.2-3.64,1.2-5.58,0-2.61-.68-5.04-2.04-7.27Zm-2.43,13.37c-1.06,1.82-2.52,3.24-4.4,4.27-1.87,1.03-3.97,1.55-6.28,1.55s-4.43-.51-6.32-1.55c-1.88-1.03-3.35-2.45-4.41-4.27-1.06-1.82-1.59-3.85-1.59-6.09s.53-4.27,1.59-6.09c1.06-1.82,2.53-3.24,4.41-4.26,1.88-1.02,3.99-1.53,6.32-1.53s4.41,.51,6.28,1.53c1.87,1.02,3.34,2.44,4.4,4.26,1.06,1.82,1.59,3.85,1.59,6.09s-.53,4.27-1.59,6.09Z"/></g></g></g></svg>